<mxfile host="app.diagrams.net" modified="2024-02-12T14:14:59.070Z" agent="Mozilla/5.0 (Windows NT 10.0; Win64; x64) AppleWebKit/537.36 (KHTML, like Gecko) Chrome/121.0.0.0 Safari/537.36" etag="d2gbS2OYFXxESEEsYUid" version="23.1.2" type="device">
  <diagram name="Страница — 1" id="JbeSkFEUVtXeOBqP8SQX">
    <mxGraphModel dx="1221" dy="652" grid="1" gridSize="10" guides="1" tooltips="1" connect="1" arrows="1" fold="1" page="1" pageScale="1" pageWidth="827" pageHeight="1169" math="0" shadow="0">
      <root>
        <mxCell id="0" />
        <mxCell id="1" parent="0" />
        <mxCell id="-CueoWW8xNvPCtUfyPlb-5" value="Animal&lt;br&gt;" style="swimlane;fontStyle=1;align=center;verticalAlign=top;childLayout=stackLayout;horizontal=1;startSize=26;horizontalStack=0;resizeParent=1;resizeParentMax=0;resizeLast=0;collapsible=1;marginBottom=0;whiteSpace=wrap;html=1;" vertex="1" parent="1">
          <mxGeometry x="30" y="10" width="160" height="160" as="geometry" />
        </mxCell>
        <mxCell id="-CueoWW8xNvPCtUfyPlb-6" value="+ Field: &lt;br/&gt;  - Species: string&lt;br/&gt;  - Name: string" style="text;strokeColor=none;fillColor=none;align=left;verticalAlign=top;spacingLeft=4;spacingRight=4;overflow=hidden;rotatable=0;points=[[0,0.5],[1,0.5]];portConstraint=eastwest;whiteSpace=wrap;html=1;" vertex="1" parent="-CueoWW8xNvPCtUfyPlb-5">
          <mxGeometry y="26" width="160" height="64" as="geometry" />
        </mxCell>
        <mxCell id="-CueoWW8xNvPCtUfyPlb-7" value="" style="line;strokeWidth=1;fillColor=none;align=left;verticalAlign=middle;spacingTop=-1;spacingLeft=3;spacingRight=3;rotatable=0;labelPosition=right;points=[];portConstraint=eastwest;strokeColor=inherit;" vertex="1" parent="-CueoWW8xNvPCtUfyPlb-5">
          <mxGeometry y="90" width="160" height="8" as="geometry" />
        </mxCell>
        <mxCell id="-CueoWW8xNvPCtUfyPlb-8" value="+ Method: &lt;br/&gt;  - Animal(species: string, name: string): void" style="text;strokeColor=none;fillColor=none;align=left;verticalAlign=top;spacingLeft=4;spacingRight=4;overflow=hidden;rotatable=0;points=[[0,0.5],[1,0.5]];portConstraint=eastwest;whiteSpace=wrap;html=1;" vertex="1" parent="-CueoWW8xNvPCtUfyPlb-5">
          <mxGeometry y="98" width="160" height="62" as="geometry" />
        </mxCell>
        <mxCell id="-CueoWW8xNvPCtUfyPlb-11" value="Mammal&lt;br&gt;" style="swimlane;fontStyle=1;align=center;verticalAlign=top;childLayout=stackLayout;horizontal=1;startSize=26;horizontalStack=0;resizeParent=1;resizeParentMax=0;resizeLast=0;collapsible=1;marginBottom=0;whiteSpace=wrap;html=1;" vertex="1" parent="1">
          <mxGeometry x="254" y="10" width="160" height="170" as="geometry" />
        </mxCell>
        <mxCell id="-CueoWW8xNvPCtUfyPlb-12" value="+ Fields: &lt;br/&gt;  - FurColor: string (inherited from Animal)" style="text;strokeColor=none;fillColor=none;align=left;verticalAlign=top;spacingLeft=4;spacingRight=4;overflow=hidden;rotatable=0;points=[[0,0.5],[1,0.5]];portConstraint=eastwest;whiteSpace=wrap;html=1;" vertex="1" parent="-CueoWW8xNvPCtUfyPlb-11">
          <mxGeometry y="26" width="160" height="54" as="geometry" />
        </mxCell>
        <mxCell id="-CueoWW8xNvPCtUfyPlb-13" value="" style="line;strokeWidth=1;fillColor=none;align=left;verticalAlign=middle;spacingTop=-1;spacingLeft=3;spacingRight=3;rotatable=0;labelPosition=right;points=[];portConstraint=eastwest;strokeColor=inherit;" vertex="1" parent="-CueoWW8xNvPCtUfyPlb-11">
          <mxGeometry y="80" width="160" height="8" as="geometry" />
        </mxCell>
        <mxCell id="-CueoWW8xNvPCtUfyPlb-14" value="+ Methods: &lt;br/&gt;  - Mammal(species: string, name: string, furColor: string): void" style="text;strokeColor=none;fillColor=none;align=left;verticalAlign=top;spacingLeft=4;spacingRight=4;overflow=hidden;rotatable=0;points=[[0,0.5],[1,0.5]];portConstraint=eastwest;whiteSpace=wrap;html=1;" vertex="1" parent="-CueoWW8xNvPCtUfyPlb-11">
          <mxGeometry y="88" width="160" height="82" as="geometry" />
        </mxCell>
        <mxCell id="-CueoWW8xNvPCtUfyPlb-16" value="Reptile&lt;br&gt;" style="swimlane;fontStyle=1;align=center;verticalAlign=top;childLayout=stackLayout;horizontal=1;startSize=26;horizontalStack=0;resizeParent=1;resizeParentMax=0;resizeLast=0;collapsible=1;marginBottom=0;whiteSpace=wrap;html=1;" vertex="1" parent="1">
          <mxGeometry x="30" y="260" width="160" height="160" as="geometry" />
        </mxCell>
        <mxCell id="-CueoWW8xNvPCtUfyPlb-17" value="+ Fields: &lt;br/&gt;  - ScaleType: string (inherited from Animal)" style="text;strokeColor=none;fillColor=none;align=left;verticalAlign=top;spacingLeft=4;spacingRight=4;overflow=hidden;rotatable=0;points=[[0,0.5],[1,0.5]];portConstraint=eastwest;whiteSpace=wrap;html=1;" vertex="1" parent="-CueoWW8xNvPCtUfyPlb-16">
          <mxGeometry y="26" width="160" height="34" as="geometry" />
        </mxCell>
        <mxCell id="-CueoWW8xNvPCtUfyPlb-18" value="" style="line;strokeWidth=1;fillColor=none;align=left;verticalAlign=middle;spacingTop=-1;spacingLeft=3;spacingRight=3;rotatable=0;labelPosition=right;points=[];portConstraint=eastwest;strokeColor=inherit;" vertex="1" parent="-CueoWW8xNvPCtUfyPlb-16">
          <mxGeometry y="60" width="160" height="8" as="geometry" />
        </mxCell>
        <mxCell id="-CueoWW8xNvPCtUfyPlb-19" value="+ Methods: &lt;br/&gt;  - Reptile(species: string, name: string, scaleType: string): void" style="text;strokeColor=none;fillColor=none;align=left;verticalAlign=top;spacingLeft=4;spacingRight=4;overflow=hidden;rotatable=0;points=[[0,0.5],[1,0.5]];portConstraint=eastwest;whiteSpace=wrap;html=1;" vertex="1" parent="-CueoWW8xNvPCtUfyPlb-16">
          <mxGeometry y="68" width="160" height="92" as="geometry" />
        </mxCell>
        <mxCell id="-CueoWW8xNvPCtUfyPlb-24" value="Enclosure" style="swimlane;fontStyle=1;align=center;verticalAlign=top;childLayout=stackLayout;horizontal=1;startSize=26;horizontalStack=0;resizeParent=1;resizeParentMax=0;resizeLast=0;collapsible=1;marginBottom=0;whiteSpace=wrap;html=1;" vertex="1" parent="1">
          <mxGeometry x="490" y="306" width="160" height="68" as="geometry" />
        </mxCell>
        <mxCell id="-CueoWW8xNvPCtUfyPlb-25" value="+ Fields: &lt;br/&gt;  - Name: string&lt;br/&gt;  - Size: string" style="text;strokeColor=none;fillColor=none;align=left;verticalAlign=top;spacingLeft=4;spacingRight=4;overflow=hidden;rotatable=0;points=[[0,0.5],[1,0.5]];portConstraint=eastwest;whiteSpace=wrap;html=1;" vertex="1" parent="-CueoWW8xNvPCtUfyPlb-24">
          <mxGeometry y="26" width="160" height="34" as="geometry" />
        </mxCell>
        <mxCell id="-CueoWW8xNvPCtUfyPlb-26" value="" style="line;strokeWidth=1;fillColor=none;align=left;verticalAlign=middle;spacingTop=-1;spacingLeft=3;spacingRight=3;rotatable=0;labelPosition=right;points=[];portConstraint=eastwest;strokeColor=inherit;" vertex="1" parent="-CueoWW8xNvPCtUfyPlb-24">
          <mxGeometry y="60" width="160" height="8" as="geometry" />
        </mxCell>
        <mxCell id="-CueoWW8xNvPCtUfyPlb-28" value="Food" style="swimlane;fontStyle=1;align=center;verticalAlign=top;childLayout=stackLayout;horizontal=1;startSize=26;horizontalStack=0;resizeParent=1;resizeParentMax=0;resizeLast=0;collapsible=1;marginBottom=0;whiteSpace=wrap;html=1;" vertex="1" parent="1">
          <mxGeometry x="590" y="420" width="160" height="170" as="geometry" />
        </mxCell>
        <mxCell id="-CueoWW8xNvPCtUfyPlb-29" value="+ Fields: &lt;br/&gt;  - Name: string&lt;br/&gt;  - Quantity: int&lt;br/&gt;  - ExpiryDate: DateTime" style="text;strokeColor=none;fillColor=none;align=left;verticalAlign=top;spacingLeft=4;spacingRight=4;overflow=hidden;rotatable=0;points=[[0,0.5],[1,0.5]];portConstraint=eastwest;whiteSpace=wrap;html=1;" vertex="1" parent="-CueoWW8xNvPCtUfyPlb-28">
          <mxGeometry y="26" width="160" height="64" as="geometry" />
        </mxCell>
        <mxCell id="-CueoWW8xNvPCtUfyPlb-30" value="" style="line;strokeWidth=1;fillColor=none;align=left;verticalAlign=middle;spacingTop=-1;spacingLeft=3;spacingRight=3;rotatable=0;labelPosition=right;points=[];portConstraint=eastwest;strokeColor=inherit;" vertex="1" parent="-CueoWW8xNvPCtUfyPlb-28">
          <mxGeometry y="90" width="160" height="8" as="geometry" />
        </mxCell>
        <mxCell id="-CueoWW8xNvPCtUfyPlb-31" value="+ Methods: &lt;br/&gt;  - Food(name: string, quantity: int, expiryDate: DateTime): void" style="text;strokeColor=none;fillColor=none;align=left;verticalAlign=top;spacingLeft=4;spacingRight=4;overflow=hidden;rotatable=0;points=[[0,0.5],[1,0.5]];portConstraint=eastwest;whiteSpace=wrap;html=1;" vertex="1" parent="-CueoWW8xNvPCtUfyPlb-28">
          <mxGeometry y="98" width="160" height="72" as="geometry" />
        </mxCell>
        <mxCell id="-CueoWW8xNvPCtUfyPlb-32" value="ZooKeeper" style="swimlane;fontStyle=1;align=center;verticalAlign=top;childLayout=stackLayout;horizontal=1;startSize=26;horizontalStack=0;resizeParent=1;resizeParentMax=0;resizeLast=0;collapsible=1;marginBottom=0;whiteSpace=wrap;html=1;" vertex="1" parent="1">
          <mxGeometry x="490" y="110" width="160" height="180" as="geometry" />
        </mxCell>
        <mxCell id="-CueoWW8xNvPCtUfyPlb-33" value="+ Fields: &lt;br/&gt;  - Name: string&lt;br/&gt;  - Position: string" style="text;strokeColor=none;fillColor=none;align=left;verticalAlign=top;spacingLeft=4;spacingRight=4;overflow=hidden;rotatable=0;points=[[0,0.5],[1,0.5]];portConstraint=eastwest;whiteSpace=wrap;html=1;" vertex="1" parent="-CueoWW8xNvPCtUfyPlb-32">
          <mxGeometry y="26" width="160" height="44" as="geometry" />
        </mxCell>
        <mxCell id="-CueoWW8xNvPCtUfyPlb-34" value="" style="line;strokeWidth=1;fillColor=none;align=left;verticalAlign=middle;spacingTop=-1;spacingLeft=3;spacingRight=3;rotatable=0;labelPosition=right;points=[];portConstraint=eastwest;strokeColor=inherit;" vertex="1" parent="-CueoWW8xNvPCtUfyPlb-32">
          <mxGeometry y="70" width="160" height="48" as="geometry" />
        </mxCell>
        <mxCell id="-CueoWW8xNvPCtUfyPlb-35" value="+ Methods: &lt;br/&gt;  - ZooKeeper(name: string, position: string): void" style="text;strokeColor=none;fillColor=none;align=left;verticalAlign=top;spacingLeft=4;spacingRight=4;overflow=hidden;rotatable=0;points=[[0,0.5],[1,0.5]];portConstraint=eastwest;whiteSpace=wrap;html=1;" vertex="1" parent="-CueoWW8xNvPCtUfyPlb-32">
          <mxGeometry y="118" width="160" height="62" as="geometry" />
        </mxCell>
        <mxCell id="-CueoWW8xNvPCtUfyPlb-36" value="Veterinarian" style="swimlane;fontStyle=1;align=center;verticalAlign=top;childLayout=stackLayout;horizontal=1;startSize=26;horizontalStack=0;resizeParent=1;resizeParentMax=0;resizeLast=0;collapsible=1;marginBottom=0;whiteSpace=wrap;html=1;" vertex="1" parent="1">
          <mxGeometry x="680" y="146" width="160" height="160" as="geometry" />
        </mxCell>
        <mxCell id="-CueoWW8xNvPCtUfyPlb-37" value="+ Fields: &lt;br/&gt;  - Specialization: string (inherited from ZooKeeper)" style="text;strokeColor=none;fillColor=none;align=left;verticalAlign=top;spacingLeft=4;spacingRight=4;overflow=hidden;rotatable=0;points=[[0,0.5],[1,0.5]];portConstraint=eastwest;whiteSpace=wrap;html=1;" vertex="1" parent="-CueoWW8xNvPCtUfyPlb-36">
          <mxGeometry y="26" width="160" height="44" as="geometry" />
        </mxCell>
        <mxCell id="-CueoWW8xNvPCtUfyPlb-38" value="" style="line;strokeWidth=1;fillColor=none;align=left;verticalAlign=middle;spacingTop=-1;spacingLeft=3;spacingRight=3;rotatable=0;labelPosition=right;points=[];portConstraint=eastwest;strokeColor=inherit;" vertex="1" parent="-CueoWW8xNvPCtUfyPlb-36">
          <mxGeometry y="70" width="160" height="8" as="geometry" />
        </mxCell>
        <mxCell id="-CueoWW8xNvPCtUfyPlb-39" value="+ Methods: &lt;br/&gt;  - Veterinarian(name: string, position: string, specialization: string): void" style="text;strokeColor=none;fillColor=none;align=left;verticalAlign=top;spacingLeft=4;spacingRight=4;overflow=hidden;rotatable=0;points=[[0,0.5],[1,0.5]];portConstraint=eastwest;whiteSpace=wrap;html=1;" vertex="1" parent="-CueoWW8xNvPCtUfyPlb-36">
          <mxGeometry y="78" width="160" height="82" as="geometry" />
        </mxCell>
        <mxCell id="-CueoWW8xNvPCtUfyPlb-41" value="Inventory" style="swimlane;fontStyle=1;align=center;verticalAlign=top;childLayout=stackLayout;horizontal=1;startSize=26;horizontalStack=0;resizeParent=1;resizeParentMax=0;resizeLast=0;collapsible=1;marginBottom=0;whiteSpace=wrap;html=1;" vertex="1" parent="1">
          <mxGeometry x="239" y="210" width="190" height="280" as="geometry" />
        </mxCell>
        <mxCell id="-CueoWW8xNvPCtUfyPlb-42" value="+ Fields: &lt;br/&gt;  - Animals: List&amp;lt;Animal&amp;gt;&lt;br/&gt;  - Enclosures: List&amp;lt;Enclosure&amp;gt;&lt;br/&gt;  - Foods: List&amp;lt;Food&amp;gt;&lt;br/&gt;  - ZooKeepers: List&amp;lt;ZooKeeper&amp;gt;" style="text;strokeColor=none;fillColor=none;align=left;verticalAlign=top;spacingLeft=4;spacingRight=4;overflow=hidden;rotatable=0;points=[[0,0.5],[1,0.5]];portConstraint=eastwest;whiteSpace=wrap;html=1;" vertex="1" parent="-CueoWW8xNvPCtUfyPlb-41">
          <mxGeometry y="26" width="190" height="84" as="geometry" />
        </mxCell>
        <mxCell id="-CueoWW8xNvPCtUfyPlb-43" value="" style="line;strokeWidth=1;fillColor=none;align=left;verticalAlign=middle;spacingTop=-1;spacingLeft=3;spacingRight=3;rotatable=0;labelPosition=right;points=[];portConstraint=eastwest;strokeColor=inherit;" vertex="1" parent="-CueoWW8xNvPCtUfyPlb-41">
          <mxGeometry y="110" width="190" height="8" as="geometry" />
        </mxCell>
        <mxCell id="-CueoWW8xNvPCtUfyPlb-44" value="+ Methods: &lt;br/&gt;  - Inventory(animals: List&amp;lt;Animal&amp;gt;, enclosures: List&amp;lt;Enclosure&amp;gt;, foods: List&amp;lt;Food&amp;gt;, zookeepers: List&amp;lt;ZooKeeper&amp;gt;): void&lt;br/&gt;  - DisplayAnimals(): void&lt;br/&gt;  - DisplayEnclosures(): void&lt;br/&gt;  - DisplayFoods(): void&lt;br/&gt;  - DisplayZooKeepers(): void" style="text;strokeColor=none;fillColor=none;align=left;verticalAlign=top;spacingLeft=4;spacingRight=4;overflow=hidden;rotatable=0;points=[[0,0.5],[1,0.5]];portConstraint=eastwest;whiteSpace=wrap;html=1;" vertex="1" parent="-CueoWW8xNvPCtUfyPlb-41">
          <mxGeometry y="118" width="190" height="162" as="geometry" />
        </mxCell>
        <mxCell id="-CueoWW8xNvPCtUfyPlb-46" value="Extends" style="endArrow=block;endSize=16;endFill=0;html=1;rounded=0;exitX=0;exitY=0.5;exitDx=0;exitDy=0;" edge="1" parent="1">
          <mxGeometry x="-0.25" y="-20" width="160" relative="1" as="geometry">
            <mxPoint x="254" y="83" as="sourcePoint" />
            <mxPoint x="190" y="84" as="targetPoint" />
            <mxPoint y="1" as="offset" />
          </mxGeometry>
        </mxCell>
        <mxCell id="-CueoWW8xNvPCtUfyPlb-47" value="Extends" style="endArrow=block;endSize=16;endFill=0;html=1;rounded=0;" edge="1" parent="1">
          <mxGeometry width="160" relative="1" as="geometry">
            <mxPoint x="95" y="260" as="sourcePoint" />
            <mxPoint x="125" y="170" as="targetPoint" />
          </mxGeometry>
        </mxCell>
        <mxCell id="-CueoWW8xNvPCtUfyPlb-51" value="" style="endArrow=none;html=1;edgeStyle=orthogonalEdgeStyle;rounded=0;exitX=0.005;exitY=0.038;exitDx=0;exitDy=0;exitPerimeter=0;" edge="1" parent="1" source="-CueoWW8xNvPCtUfyPlb-41">
          <mxGeometry relative="1" as="geometry">
            <mxPoint x="230" y="220" as="sourcePoint" />
            <mxPoint x="190" y="170" as="targetPoint" />
          </mxGeometry>
        </mxCell>
        <mxCell id="-CueoWW8xNvPCtUfyPlb-52" value="parent" style="edgeLabel;resizable=0;html=1;align=left;verticalAlign=bottom;" connectable="0" vertex="1" parent="-CueoWW8xNvPCtUfyPlb-51">
          <mxGeometry x="-1" relative="1" as="geometry" />
        </mxCell>
        <mxCell id="-CueoWW8xNvPCtUfyPlb-53" value="child" style="edgeLabel;resizable=0;html=1;align=right;verticalAlign=bottom;" connectable="0" vertex="1" parent="-CueoWW8xNvPCtUfyPlb-51">
          <mxGeometry x="1" relative="1" as="geometry" />
        </mxCell>
        <mxCell id="-CueoWW8xNvPCtUfyPlb-54" value="" style="endArrow=none;html=1;edgeStyle=orthogonalEdgeStyle;rounded=0;" edge="1" parent="1">
          <mxGeometry relative="1" as="geometry">
            <mxPoint x="430" y="350" as="sourcePoint" />
            <mxPoint x="490" y="350" as="targetPoint" />
            <Array as="points">
              <mxPoint x="470" y="350" />
              <mxPoint x="470" y="350" />
            </Array>
          </mxGeometry>
        </mxCell>
        <mxCell id="-CueoWW8xNvPCtUfyPlb-55" value="parent" style="edgeLabel;resizable=0;html=1;align=left;verticalAlign=bottom;" connectable="0" vertex="1" parent="-CueoWW8xNvPCtUfyPlb-54">
          <mxGeometry x="-1" relative="1" as="geometry" />
        </mxCell>
        <mxCell id="-CueoWW8xNvPCtUfyPlb-56" value="child" style="edgeLabel;resizable=0;html=1;align=right;verticalAlign=bottom;" connectable="0" vertex="1" parent="-CueoWW8xNvPCtUfyPlb-54">
          <mxGeometry x="1" relative="1" as="geometry" />
        </mxCell>
        <mxCell id="-CueoWW8xNvPCtUfyPlb-57" value="" style="endArrow=none;html=1;edgeStyle=orthogonalEdgeStyle;rounded=0;" edge="1" parent="1">
          <mxGeometry relative="1" as="geometry">
            <mxPoint x="430" y="470" as="sourcePoint" />
            <mxPoint x="590" y="470" as="targetPoint" />
          </mxGeometry>
        </mxCell>
        <mxCell id="-CueoWW8xNvPCtUfyPlb-58" value="parent" style="edgeLabel;resizable=0;html=1;align=left;verticalAlign=bottom;" connectable="0" vertex="1" parent="-CueoWW8xNvPCtUfyPlb-57">
          <mxGeometry x="-1" relative="1" as="geometry" />
        </mxCell>
        <mxCell id="-CueoWW8xNvPCtUfyPlb-59" value="child" style="edgeLabel;resizable=0;html=1;align=right;verticalAlign=bottom;" connectable="0" vertex="1" parent="-CueoWW8xNvPCtUfyPlb-57">
          <mxGeometry x="1" relative="1" as="geometry" />
        </mxCell>
        <mxCell id="-CueoWW8xNvPCtUfyPlb-60" value="" style="endArrow=none;html=1;edgeStyle=orthogonalEdgeStyle;rounded=0;" edge="1" parent="1">
          <mxGeometry relative="1" as="geometry">
            <mxPoint x="430" y="250" as="sourcePoint" />
            <mxPoint x="490" y="250" as="targetPoint" />
          </mxGeometry>
        </mxCell>
        <mxCell id="-CueoWW8xNvPCtUfyPlb-61" value="parent" style="edgeLabel;resizable=0;html=1;align=left;verticalAlign=bottom;" connectable="0" vertex="1" parent="-CueoWW8xNvPCtUfyPlb-60">
          <mxGeometry x="-1" relative="1" as="geometry" />
        </mxCell>
        <mxCell id="-CueoWW8xNvPCtUfyPlb-62" value="child" style="edgeLabel;resizable=0;html=1;align=right;verticalAlign=bottom;" connectable="0" vertex="1" parent="-CueoWW8xNvPCtUfyPlb-60">
          <mxGeometry x="1" relative="1" as="geometry" />
        </mxCell>
      </root>
    </mxGraphModel>
  </diagram>
</mxfile>
